<mxfile host="app.diagrams.net" modified="2020-09-17T00:37:38.652Z" agent="5.0 (Macintosh; Intel Mac OS X 10_15_6) AppleWebKit/605.1.15 (KHTML, like Gecko) Version/13.1.2 Safari/605.1.15" etag="f__487AAqbdV_0wgavF8" version="13.6.6" type="github">
  <diagram id="C5RBs43oDa-KdzZeNtuy" name="Page-1">
    <mxGraphModel dx="1413" dy="1040" grid="1" gridSize="10" guides="1" tooltips="1" connect="1" arrows="1" fold="1" page="1" pageScale="1" pageWidth="827" pageHeight="1169" math="0" shadow="0">
      <root>
        <mxCell id="WIyWlLk6GJQsqaUBKTNV-0" />
        <mxCell id="WIyWlLk6GJQsqaUBKTNV-1" parent="WIyWlLk6GJQsqaUBKTNV-0" />
        <mxCell id="aw07fN2i2Jysepep-etF-5" value="" style="edgeStyle=orthogonalEdgeStyle;rounded=0;orthogonalLoop=1;jettySize=auto;html=1;" edge="1" parent="WIyWlLk6GJQsqaUBKTNV-1" source="WIyWlLk6GJQsqaUBKTNV-3" target="aw07fN2i2Jysepep-etF-0">
          <mxGeometry relative="1" as="geometry" />
        </mxCell>
        <mxCell id="WIyWlLk6GJQsqaUBKTNV-3" value="课件初始化完成&lt;br&gt;imkClassWebCoursewareInitDidFinished" style="rounded=1;whiteSpace=wrap;html=1;fontSize=12;glass=0;strokeWidth=1;shadow=0;" parent="WIyWlLk6GJQsqaUBKTNV-1" vertex="1">
          <mxGeometry x="270" y="260" width="260" height="50" as="geometry" />
        </mxCell>
        <mxCell id="aw07fN2i2Jysepep-etF-16" value="" style="edgeStyle=orthogonalEdgeStyle;rounded=0;orthogonalLoop=1;jettySize=auto;html=1;" edge="1" parent="WIyWlLk6GJQsqaUBKTNV-1" source="aw07fN2i2Jysepep-etF-0" target="aw07fN2i2Jysepep-etF-2">
          <mxGeometry relative="1" as="geometry" />
        </mxCell>
        <mxCell id="aw07fN2i2Jysepep-etF-17" value="" style="edgeStyle=orthogonalEdgeStyle;rounded=0;orthogonalLoop=1;jettySize=auto;html=1;" edge="1" parent="WIyWlLk6GJQsqaUBKTNV-1" source="aw07fN2i2Jysepep-etF-0" target="aw07fN2i2Jysepep-etF-14">
          <mxGeometry relative="1" as="geometry" />
        </mxCell>
        <mxCell id="aw07fN2i2Jysepep-etF-0" value="初始化Ai&lt;br&gt;loadActions" style="rounded=1;whiteSpace=wrap;html=1;fillColor=#dae8fc;strokeColor=#6c8ebf;" vertex="1" parent="WIyWlLk6GJQsqaUBKTNV-1">
          <mxGeometry x="272.5" y="370" width="255" height="60" as="geometry" />
        </mxCell>
        <mxCell id="aw07fN2i2Jysepep-etF-2" value="完成" style="ellipse;whiteSpace=wrap;html=1;aspect=fixed;fillColor=#d5e8d4;strokeColor=#82b366;" vertex="1" parent="WIyWlLk6GJQsqaUBKTNV-1">
          <mxGeometry x="360" y="480" width="80" height="80" as="geometry" />
        </mxCell>
        <mxCell id="aw07fN2i2Jysepep-etF-9" value="" style="edgeStyle=orthogonalEdgeStyle;rounded=0;orthogonalLoop=1;jettySize=auto;html=1;" edge="1" parent="WIyWlLk6GJQsqaUBKTNV-1" source="aw07fN2i2Jysepep-etF-8" target="WIyWlLk6GJQsqaUBKTNV-3">
          <mxGeometry relative="1" as="geometry" />
        </mxCell>
        <mxCell id="aw07fN2i2Jysepep-etF-8" value="课堂初始化完成&lt;br&gt;layout" style="rounded=1;whiteSpace=wrap;html=1;fontSize=12;glass=0;strokeWidth=1;shadow=0;" vertex="1" parent="WIyWlLk6GJQsqaUBKTNV-1">
          <mxGeometry x="270" y="150" width="260" height="50" as="geometry" />
        </mxCell>
        <mxCell id="aw07fN2i2Jysepep-etF-11" value="" style="edgeStyle=orthogonalEdgeStyle;rounded=0;orthogonalLoop=1;jettySize=auto;html=1;" edge="1" parent="WIyWlLk6GJQsqaUBKTNV-1" source="aw07fN2i2Jysepep-etF-10" target="aw07fN2i2Jysepep-etF-8">
          <mxGeometry relative="1" as="geometry" />
        </mxCell>
        <mxCell id="aw07fN2i2Jysepep-etF-10" value="点击环节按钮" style="text;html=1;align=center;verticalAlign=middle;resizable=0;points=[];autosize=1;" vertex="1" parent="WIyWlLk6GJQsqaUBKTNV-1">
          <mxGeometry x="355" y="80" width="90" height="20" as="geometry" />
        </mxCell>
        <mxCell id="aw07fN2i2Jysepep-etF-14" value="异常" style="ellipse;whiteSpace=wrap;html=1;fillColor=#f8cecc;strokeColor=#b85450;" vertex="1" parent="WIyWlLk6GJQsqaUBKTNV-1">
          <mxGeometry x="600" y="360" width="80" height="80" as="geometry" />
        </mxCell>
      </root>
    </mxGraphModel>
  </diagram>
</mxfile>
